<?xml version="1.0" encoding="UTF-8" standalone="no"?>
<svg
   width="640"
   height="128"
   viewBox="0 0 640 128"
   role="img"
   aria-label="Verified by Ardenfold"
   version="1.1"
   id="svg14"
   xmlns="http://www.w3.org/2000/svg"
   xmlns:svg="http://www.w3.org/2000/svg">
  <defs
     id="defs18" />
  <rect
     x="2"
     y="2"
     width="636"
     height="124"
     rx="62"
     fill="#FFFFFF"
     stroke="#D7E2E1"
     stroke-width="4"
     id="rect2" />
  <circle
     cx="65"
     cy="64"
     r="40"
     fill="#12383A"
     id="circle4" />
  <path
     d="m46 64 13 13 27-31"
     fill="none"
     stroke="#35C7B5"
     stroke-width="10"
     stroke-linecap="round"
     stroke-linejoin="round"
     id="path6" />
  <circle
     cx="91"
     cy="38"
     r="7"
     fill="#D99A3D"
     id="circle8" />
  <g
     aria-label="VERIFIED BY"
     id="text10"
     style="font-weight:600;font-size:24px;font-family:'Nimbus Sans', Arial, sans-serif;letter-spacing:2;fill:#52676b">
    <path
       d="m 133.528,54 6,-17.496 h -3.624 L 132.088,49.68 128.2,36.504 h -3.624 L 130.48,54 Z"
       id="path20" />
    <path
       d="m 147.21602,46.464 h 8.376 v -3 h -8.376 v -3.96 h 9.048 v -3 h -12.648 V 54 h 13.08 v -3 h -9.48 z"
       id="path22" />
    <path
       d="m 165.24801,47.064 h 4.128 c 1.56,0 2.232,0.624 2.232,2.064 v 0.72 c -0.024,0.456 -0.024,0.888 -0.024,1.152 0,1.656 0.096,2.16 0.528,3 h 3.864 v -0.648 c -0.552,-0.312 -0.768,-0.672 -0.768,-1.44 -0.096,-5.16 -0.192,-5.4 -2.424,-6.36 1.968,-0.768 2.952,-2.184 2.952,-4.32 0,-1.392 -0.48,-2.664 -1.32,-3.528 -0.792,-0.816 -1.896,-1.2 -3.384,-1.2 h -9.384 V 54 h 3.6 z m 0,-3 v -4.56 h 4.344 c 1.032,0 1.44,0.096 1.896,0.456 0.432,0.36 0.648,0.96 0.648,1.776 0,0.84 -0.216,1.512 -0.648,1.872 -0.408,0.336 -0.864,0.456 -1.896,0.456 z"
       id="path24" />
    <path
       d="m 184.26401,36.504 h -3.6 V 54 h 3.6 z"
       id="path26" />
    <path
       d="m 193.20001,46.464 h 7.656 v -3 h -7.656 v -3.96 h 8.688 v -3 h -12.288 V 54 h 3.6 z"
       id="path28" />
    <path
       d="m 209.60001,36.504 h -3.6 V 54 h 3.6 z"
       id="path30" />
    <path
       d="m 218.656,46.464 h 8.376 v -3 h -8.376 v -3.96 h 9.048 v -3 H 215.056 V 54 h 13.08 v -3 h -9.48 z"
       id="path32" />
    <path
       d="m 233.016,54 h 6.84 c 2.664,0 4.344,-0.624 5.544,-2.04 1.368,-1.632 2.112,-3.984 2.112,-6.72 0,-2.712 -0.744,-5.064 -2.112,-6.72 -1.2,-1.416 -2.856,-2.016 -5.544,-2.016 h -6.84 z m 3.6,-3 V 39.504 h 3.24 c 2.712,0 4.056,1.896 4.056,5.76 0,3.84 -1.344,5.736 -4.056,5.736 z"
       id="path34" />
    <path
       d="m 261.136,54 h 7.872 c 2.016,0 3.36,-0.384 4.416,-1.272 1.056,-0.888 1.728,-2.352 1.728,-3.768 0,-1.728 -0.912,-3.096 -2.904,-4.248 1.728,-1.104 2.4,-2.112 2.4,-3.6 0,-1.224 -0.6,-2.472 -1.584,-3.336 -1.032,-0.888 -2.256,-1.272 -4.128,-1.272 h -7.8 z m 3.6,-14.496 h 3.912 c 1.68,0 2.544,0.672 2.544,1.968 0,1.32 -0.864,1.992 -2.544,1.992 h -3.912 z m 0,6.96 h 4.296 c 1.752,0 2.664,0.768 2.664,2.28 0,1.488 -0.912,2.256 -2.664,2.256 h -4.296 z"
       id="path36" />
    <path
       d="m 287.35202,47.52 5.544,-11.016 h -4.032 l -3.336,7.728 -3.576,-7.728 h -4.008 l 5.808,11.016 V 54 h 3.6 z"
       id="path38" />
  </g>
  <g
     aria-label="Ardenfold"
     id="text12"
     style="font-weight:700;font-size:42px;font-family:'Nimbus Sans', Arial, sans-serif;fill:#09191c">
    <path
       d="M 143.042,87.826 145.058,94 h 6.468 L 140.942,63.382 H 133.97 L 123.092,94 h 6.426 l 2.058,-6.174 z m -1.722,-5.25 h -7.98 l 3.99,-11.97 z"
       id="path41" />
    <path
       d="M 154.97001,71.32 V 94 h 5.88 V 81.946 c 0,-3.444 1.722,-5.166 5.166,-5.166 0.63,0 1.05,0.042 1.848,0.168 v -5.964 c -0.336,-0.042 -0.462,-0.042 -0.714,-0.042 -2.688,0 -4.998,1.764 -6.3,4.83 V 71.32 Z"
       id="path43" />
    <path
       d="m 185.672,94 h 5.88 V 63.382 h -5.88 V 74.26 c -1.47,-2.268 -3.402,-3.318 -6.258,-3.318 -5.418,0 -9.534,5.208 -9.534,12.054 0,3.066 0.924,6.174 2.436,8.358 1.554,2.226 4.326,3.612 7.098,3.612 2.856,0 4.788,-1.008 6.258,-3.276 z m -4.956,-18.144 c 2.982,0 4.956,2.856 4.956,7.224 0,4.116 -2.016,6.972 -4.956,6.972 -2.94,0 -4.956,-2.898 -4.956,-7.056 0,-4.242 2.016,-7.14 4.956,-7.14 z"
       id="path45" />
    <path
       d="m 216.33201,84.508 c 0.042,-0.504 0.042,-0.714 0.042,-1.008 0,-2.268 -0.336,-4.368 -0.882,-5.964 -1.512,-4.116 -5.166,-6.594 -9.744,-6.594 -6.51,0 -10.5,4.704 -10.5,12.306 0,7.266 3.948,11.718 10.374,11.718 5.082,0 9.198,-2.856 10.5,-7.35 h -5.796 c -0.714,1.806 -2.352,2.856 -4.494,2.856 -1.68,0 -3.024,-0.714 -3.864,-1.974 -0.546,-0.84 -0.756,-1.848 -0.84,-3.99 z m -15.12,-3.906 c 0.378,-3.486 1.848,-5.166 4.452,-5.166 2.688,0 4.284,1.806 4.578,5.166 z"
       id="path47" />
    <path
       d="M 220.32199,71.32 V 94 h 5.88 V 80.392 c 0,-2.688 1.848,-4.452 4.746,-4.452 2.52,0 3.78,1.386 3.78,4.074 V 94 h 5.88 V 78.796 c 0,-5.04 -2.73,-7.854 -7.602,-7.854 -3.066,0 -5.124,1.092 -6.804,3.654 V 71.32 Z"
       id="path49" />
    <path
       d="m 256.484,71.782 h -3.486 v -2.226 c 0,-1.176 0.504,-1.764 1.596,-1.764 0.546,0 1.092,0.042 1.68,0.126 v -4.41 c -1.26,-0.084 -2.478,-0.126 -3.36,-0.126 -3.906,0 -5.796,1.848 -5.796,5.67 v 2.73 h -3.192 v 3.906 h 3.192 V 94 h 5.88 V 75.688 h 3.486 z"
       id="path51" />
    <path
       d="m 269.54599,70.942 c -6.93,0 -11.172,4.578 -11.172,12.012 0,7.476 4.242,12.012 11.214,12.012 6.93,0 11.214,-4.536 11.214,-11.844 0,-7.686 -4.158,-12.18 -11.256,-12.18 z m 0.042,4.746 c 3.234,0 5.334,2.898 5.334,7.35 0,4.242 -2.184,7.182 -5.334,7.182 -3.192,0 -5.334,-2.898 -5.334,-7.266 0,-4.368 2.142,-7.266 5.334,-7.266 z"
       id="path53" />
    <path
       d="m 291.25999,63.382 h -5.88 V 94 h 5.88 z"
       id="path55" />
    <path
       d="m 311.25199,94 h 5.88 V 63.382 h -5.88 V 74.26 c -1.47,-2.268 -3.402,-3.318 -6.258,-3.318 -5.418,0 -9.534,5.208 -9.534,12.054 0,3.066 0.924,6.174 2.436,8.358 1.554,2.226 4.326,3.612 7.098,3.612 2.856,0 4.788,-1.008 6.258,-3.276 z m -4.956,-18.144 c 2.982,0 4.956,2.856 4.956,7.224 0,4.116 -2.016,6.972 -4.956,6.972 -2.94,0 -4.956,-2.898 -4.956,-7.056 0,-4.242 2.016,-7.14 4.956,-7.14 z"
       id="path57" />
  </g>
</svg>
