<svg xmlns="http://www.w3.org/2000/svg" width="1200" height="630" viewBox="0 0 1200 630" role="img" aria-labelledby="title desc">
  <title id="title">Ardenfold</title><desc id="desc">Cada activo deja una historia verificable</desc>
  <defs>
    <linearGradient id="bg" x1="0" y1="0" x2="1200" y2="630" gradientUnits="userSpaceOnUse"><stop stop-color="#07171A"/><stop offset="1" stop-color="#12383A"/></linearGradient>
    <mask id="cut"><rect width="64" height="64" fill="white"/><path d="M22 38H41.5L44.5 44H19Z" fill="black"/></mask>
    <pattern id="grid" width="42" height="42" patternUnits="userSpaceOnUse"><path d="M42 0H0V42" fill="none" stroke="#D7F5EF" stroke-opacity=".05"/></pattern>
  </defs>
  <rect width="1200" height="630" rx="24" fill="url(#bg)"/><rect width="1200" height="630" rx="24" fill="url(#grid)"/>
  <path d="M688 612 843 457H996l137-137h106M760 640l165-165h155l160-160" fill="none" stroke="#35C7B5" stroke-opacity=".28" stroke-width="2"/>
  <circle cx="843" cy="457" r="7" fill="#D99A3D"/><circle cx="996" cy="457" r="7" fill="#35C7B5"/><circle cx="1133" cy="320" r="7" fill="#D99A3D"/>
  <g transform="translate(70 60) scale(1.05)" mask="url(#cut)"><path d="M8 54 26.5 10H36L17.5 54Z" fill="#35C7B5"/><path d="M36 10 56 54H43.5L30 23.5Z" fill="#D7F5EF"/></g>
  <circle cx="117.5" cy="106.2" r="2.7" fill="#E5AD57"/>
  <text x="144" y="110" fill="#F4FBFA" font-family="Arial, sans-serif" font-size="38" font-weight="700">Ardenfold</text>
  <text x="70" y="267" fill="#F4FBFA" font-family="Arial, sans-serif" font-size="58" font-weight="700">Cada activo deja una</text>
  <text x="70" y="337" fill="#35C7B5" font-family="Arial, sans-serif" font-size="58" font-weight="700">historia verificable.</text>
  <text x="72" y="401" fill="#BCD0D1" font-family="Arial, sans-serif" font-size="25">Activos, trabajo técnico y certificados en una sola cadena de confianza.</text>
  <rect x="70" y="490" width="344" height="54" rx="27" fill="#D99A3D"/><text x="101" y="525" fill="#07171A" font-family="Arial, sans-serif" font-size="21" font-weight="700">TRAZABILIDAD TÉCNICA</text>
</svg>
