<svg xmlns="http://www.w3.org/2000/svg" width="1920" height="1080" viewBox="0 0 1920 1080" role="img" aria-label="Brand board Ardenfold">
  <defs>
    <linearGradient id="dark" x1="0" y1="0" x2="960" y2="1080" gradientUnits="userSpaceOnUse"><stop stop-color="#07171A"/><stop offset="1" stop-color="#12383A"/></linearGradient>
    <mask id="cut"><rect width="64" height="64" fill="white"/><path d="M22 38H41.5L44.5 44H19Z" fill="black"/></mask>
  </defs>
  <rect width="1920" height="1080" fill="#F4F8F7"/>
  <rect width="770" height="1080" fill="url(#dark)"/>
  <g transform="translate(92 88) scale(2.2)" mask="url(#cut)"><path d="M8 54 26.5 10H36L17.5 54Z" fill="#35C7B5"/><path d="M36 10 56 54H43.5L30 23.5Z" fill="#D7F5EF"/></g><circle cx="197" cy="190" r="5.5" fill="#D99A3D"/>
  <text x="250" y="180" fill="#F4FBFA" font-family="Arial, sans-serif" font-size="72" font-weight="700">Ardenfold</text>
  <text x="92" y="338" fill="#F4FBFA" font-family="Arial, sans-serif" font-size="49" font-weight="700">Cada activo deja</text>
  <text x="92" y="398" fill="#35C7B5" font-family="Arial, sans-serif" font-size="49" font-weight="700">una historia verificable.</text>
  <text x="92" y="470" fill="#BCD0D1" font-family="Arial, sans-serif" font-size="23">Infraestructura de confianza para activos,</text><text x="92" y="505" fill="#BCD0D1" font-family="Arial, sans-serif" font-size="23">trabajo técnico y certificados.</text>
  <path d="M92 664h224l110-110h206M92 744h306l102-102h184" fill="none" stroke="#35C7B5" stroke-opacity=".42" stroke-width="3"/><circle cx="316" cy="664" r="9" fill="#D99A3D"/><circle cx="500" cy="642" r="9" fill="#35C7B5"/>
  <text x="844" y="98" fill="#09191C" font-family="Arial, sans-serif" font-size="30" font-weight="700">IDENTIDAD VISUAL · 2026</text>
  <text x="844" y="194" fill="#09191C" font-family="Arial, sans-serif" font-size="54" font-weight="700">Precisa. Industrial.</text><text x="844" y="258" fill="#0F766E" font-family="Arial, sans-serif" font-size="54" font-weight="700">Confiable. Humana.</text>
  <g transform="translate(844 332)"><rect width="218" height="218" rx="28" fill="#0F766E"/><text x="24" y="158" fill="#FFFFFF" font-family="Arial" font-size="26" font-weight="700">Arden Teal</text><text x="24" y="190" fill="#D7F5EF" font-family="Arial" font-size="20">#0F766E</text></g>
  <g transform="translate(1082 332)"><rect width="218" height="218" rx="28" fill="#12383A"/><text x="24" y="158" fill="#FFFFFF" font-family="Arial" font-size="26" font-weight="700">Deep Trace</text><text x="24" y="190" fill="#D7F5EF" font-family="Arial" font-size="20">#12383A</text></g>
  <g transform="translate(1320 332)"><rect width="218" height="218" rx="28" fill="#35C7B5"/><text x="24" y="158" fill="#07171A" font-family="Arial" font-size="26" font-weight="700">Signal Mint</text><text x="24" y="190" fill="#12383A" font-family="Arial" font-size="20">#35C7B5</text></g>
  <g transform="translate(1558 332)"><rect width="218" height="218" rx="28" fill="#D99A3D"/><text x="24" y="158" fill="#07171A" font-family="Arial" font-size="26" font-weight="700">Mineral</text><text x="24" y="190" fill="#3E2C10" font-family="Arial" font-size="20">#D99A3D</text></g>
  <text x="844" y="652" fill="#09191C" font-family="Arial, sans-serif" font-size="42" font-weight="700">Manrope</text><text x="1062" y="652" fill="#52676B" font-family="Arial, sans-serif" font-size="24">Marca y titulares</text>
  <text x="844" y="714" fill="#09191C" font-family="Arial, sans-serif" font-size="42" font-weight="600">Inter</text><text x="1062" y="714" fill="#52676B" font-family="Arial, sans-serif" font-size="24">Producto y documentos</text>
  <text x="844" y="776" fill="#12383A" font-family="DejaVu Sans Mono, monospace" font-size="34">IBM Plex Mono</text><text x="1160" y="776" fill="#52676B" font-family="Arial, sans-serif" font-size="24">Datos técnicos</text>
  <line x1="844" y1="838" x2="1776" y2="838" stroke="#D7E2E1" stroke-width="3"/>
  <text x="844" y="908" fill="#09191C" font-family="Arial, sans-serif" font-size="28" font-weight="700">Símbolo</text><text x="844" y="950" fill="#52676B" font-family="Arial, sans-serif" font-size="22">Una A construida como trayectoria plegada:</text><text x="844" y="984" fill="#52676B" font-family="Arial, sans-serif" font-size="22">continuidad, evidencia y un punto de control.</text>
  <g transform="translate(1588 860) scale(2.7)" mask="url(#cut)"><path d="M8 54 26.5 10H36L17.5 54Z" fill="#0F766E"/><path d="M36 10 56 54H43.5L30 23.5Z" fill="#12383A"/></g><circle cx="1710" cy="985" r="6.8" fill="#D99A3D"/>
</svg>
